<svg width="96" height="83" viewBox="0 0 96 83" fill="none" xmlns="http://www.w3.org/2000/svg">
<path d="M37.9645 4.94975C39.9171 2.99713 43.0829 2.99713 45.0355 4.94975L78.0502 37.9645C80.0029 39.9171 80.0029 43.0829 78.0503 45.0355L45.0355 78.0502C43.0829 80.0029 39.9171 80.0029 37.9645 78.0503L4.94975 45.0355C2.99713 43.0829 2.99713 39.9171 4.94975 37.9645L37.9645 4.94975Z" stroke="#00FFF0" stroke-width="2"/>
<path d="M29.456 33.92V38.464H36.784V42.688H29.456V47.616H37.744V52H23.984V29.536H37.744V33.92H29.456ZM48.0485 29.536V52H42.5765V29.536H48.0485ZM52.366 40.736C52.366 38.5173 52.846 36.544 53.806 34.816C54.766 33.0667 56.0993 31.712 57.806 30.752C59.534 29.7707 61.486 29.28 63.662 29.28C66.3287 29.28 68.6113 29.984 70.51 31.392C72.4087 32.8 73.678 34.72 74.318 37.152H68.302C67.854 36.2133 67.214 35.4987 66.382 35.008C65.5713 34.5173 64.6433 34.272 63.598 34.272C61.9127 34.272 60.5473 34.8587 59.502 36.032C58.4567 37.2053 57.934 38.7733 57.934 40.736C57.934 42.6987 58.4567 44.2667 59.502 45.44C60.5473 46.6133 61.9127 47.2 63.598 47.2C64.6433 47.2 65.5713 46.9547 66.382 46.464C67.214 45.9733 67.854 45.2587 68.302 44.32H74.318C73.678 46.752 72.4087 48.672 70.51 50.08C68.6113 51.4667 66.3287 52.16 63.662 52.16C61.486 52.16 59.534 51.68 57.806 50.72C56.0993 49.7387 54.766 48.384 53.806 46.656C52.846 44.928 52.366 42.9547 52.366 40.736ZM95.109 29.536V33.92H89.157V52H83.685V33.92H77.733V29.536H95.109Z" fill="white"/>
</svg>
